<svg width="12" height="11" viewBox="0 0 12 11" fill="none" xmlns="http://www.w3.org/2000/svg">
<g id="&#231;&#187;&#132; 5456">
<g id="Clip path group">
<mask id="mask0_121_9451" style="mask-type:luminance" maskUnits="userSpaceOnUse" x="0" y="0" width="12" height="11">
<g id="clip-path">
<path id="&#231;&#159;&#169;&#229;&#189;&#162; 996" d="M-9.25064e-05 11L11.3154 11L11.3154 0.973093L-9.31286e-05 0.973093L-9.25064e-05 11Z" fill="white"/>
</g>
</mask>
<g mask="url(#mask0_121_9451)">
<g id="&#231;&#187;&#132; 5389">
<path id="&#232;&#183;&#175;&#229;&#190;&#132; 444" d="M-9.28175e-05 5.98655L-9.28679e-05 5.17447L7.93425 5.17447C5.97567 5.17447 5.27286 0.973093 5.27286 0.973093L7.41378 0.973093C7.56586 4.01985 11.3154 5.09105 11.3154 5.09105L11.3154 6.88204C11.3154 6.88204 7.56586 7.95361 7.41526 11L5.27433 11C5.27433 11 5.97567 6.79862 7.93572 6.79862L-0.000461839 6.79862L-9.28175e-05 5.98655Z" fill="white"/>
</g>
</g>
</g>
</g>
</svg>
